:SAMPLES-PER-SECOND 30
:FULLY-SPECIFIED
:DEGREES
428
root  73.0912 39.3265 3.80317 167.316 84.4026 166.932
RightUpLeg  -6.63923 -5.35093 -1.08183
RightLeg  12.7123 13.0997 1.10553
RightFoot  -2.43467 0.212012 -2.94755
RightToes  2.21189e-009 0 -3.6325e-017
Spine  14.2909 -1.26154 2.39804
Spine1  -0.740293 -0.551546 -2.87745
HEad  -91.5321 26.2702 -34.7851
LeftShoulder1  1.57278 27.9921 17.1624
LeftArm  12.6449 29.138 -144.647
LeftForeArm  -119.45 -29.8912 -176.972
LeftHand  -94.7948 -42.9817 137.27
RightShoulder  0.305943 -0.754766 2.94143
RightArm  -59.3629 27.648 60.6452
RightForeArm  119.412 75.7452 132.109
RightHand  142.682 60.5044 155.951
LeftUpLeg  -9.31207 3.8553 2.09163
LeftLeg  3.37026 -15.0192 -0.628459
LeftFoot  9.35702 -0.232881 0.962836
LeftToes  -3.01956e-010 3.07132e-011 1.04116e-011
429
root  73.3905 39.3988 3.77158 163.832 84.7401 162.992
RightUpLeg  -6.34459 -5.62327 -1.26602
RightLeg  11.9542 13.7286 0.936818
RightFoot  -2.25228 0.198888 -2.69138
RightToes  2.21189e-009 0 -3.6325e-017
Spine  8.73379 -1.16678 3.98481
Spine1  12.7582 1.31131 -7.7167
HEad  -94.1614 19.614 -40.3929
LeftShoulder1  2.13777 49.3857 14.4902
LeftArm  29.8298 35.4354 -138.544
LeftForeArm  -129.648 -31.2189 -176.446
LeftHand  -98.1728 -43.0692 139.493
RightShoulder  0.158845 -1.8675 1.56047
RightArm  -65.364 28.2378 58.5309
RightForeArm  119.362 76.1143 130.695
RightHand  158.081 59.5754 166.108
LeftUpLeg  -8.68625 4.43229 2.10735
LeftLeg  2.25355 -15.051 -0.840759
LeftFoot  9.4191 -0.261496 1.11114
LeftToes  -3.01956e-010 3.07132e-011 1.04116e-011
430
root  73.5621 39.4438 3.64271 154.911 85.7572 153.723
RightUpLeg  -6.65157 -5.87897 -1.81955
RightLeg  12.1202 15.1231 1.19231
RightFoot  -2.21884 0.187522 -2.53881
RightToes  2.21189e-009 0 -3.6325e-017
Spine  10.0858 -1.14847 3.61385
Spine1  10.1307 1.59574 -9.10698
HEad  -98.1304 19.6449 -40.141
LeftShoulder1  0.564419 48.6447 10.9661
LeftArm  31.6153 33.9672 -136.182
LeftForeArm  -125.694 -33.0037 -176.18
LeftHand  -98.1408 -42.8543 139.649
RightShoulder  0.188892 -1.63915 1.92118
RightArm  -65.4172 27.0795 57.372
RightForeArm  114.259 77.1478 124.98
RightHand  162.696 59.4996 168.945
LeftUpLeg  -7.9588 4.69868 1.87727
LeftLeg  1.0346 -14.0693 -0.99165
LeftFoot  9.81676 -0.335811 1.47689
LeftToes  -3.01956e-010 3.07132e-011 1.04116e-011
431
root  73.7491 39.46 3.57815 151.912 85.5671 150.677
RightUpLeg  -6.38025 -6.12809 -2.18946
RightLeg  12.1065 15.3179 1.13311
RightFoot  -2.4036 0.198163 -2.73921
RightToes  2.21189e-009 0 -3.6325e-017
Spine  10.6826 -1.16432 3.38075
Spine1  9.6459 1.59706 -9.34622
HEad  -101.176 18.9194 -40.3725
LeftShoulder1  -1.87976 48.9482 5.28996
LeftArm  34.35 32.7192 -132.344
LeftForeArm  -124.617 -34.4978 -175.892
LeftHand  -98.1113 -42.7345 139.731
RightShoulder  0.205519 -1.63272 2.9936
RightArm  -65.151 26.5348 54.95
RightForeArm  109.413 78.0985 118.443
RightHand  174.47 58.1384 176.035
LeftUpLeg  -7.43675 4.81823 1.70472
LeftLeg  0.575882 -14.2412 -1.22469
LeftFoot  9.35119 -0.246331 1.03645
LeftToes  -3.01956e-010 3.07132e-011 1.04116e-011
432
root  73.8796 39.4793 3.48973 148.539 85.5343 147.301
RightUpLeg  -5.9798 -6.06399 -2.39893
RightLeg  11.7094 15.4771 0.60486
RightFoot  -2.61982 0.145587 -2.14245
RightToes  2.21189e-009 0 -3.6325e-017
Spine  12.7566 -1.06711 2.73348
Spine1  6.70018 1.26409 -8.33175
HEad  -104.623 19.0591 -39.1586
LeftShoulder1  -3.38515 46.8941 1.81898
LeftArm  33.9191 30.8684 -128.465
LeftForeArm  -123.326 -35.6284 -175.603
LeftHand  -97.59 -42.616 139.485
RightShoulder  0.21963 -1.84594 5.31663
RightArm  -63.6858 26.2526 52.1257
RightForeArm  102.716 78.6896 111.685
RightHand  -173.932 55.8884 -177.22
LeftUpLeg  -7.00241 4.69662 1.40264
LeftLeg  0.210269 -13.8902 -1.2282
LeftFoot  9.21851 -0.216708 0.882585
LeftToes  -3.01956e-010 3.07132e-011 1.04116e-011
433
root  73.9972 39.4962 3.39495 143.865 85.5695 142.647
RightUpLeg  -5.83127 -6.26753 -2.76624
RightLeg  11.8256 15.9785 0.493851
RightFoot  -2.73627 0.140832 -2.11803
RightToes  2.21189e-009 0 -3.6325e-017
Spine  18.2499 -1.11331 0.873972
Spine1  -5.36518 -0.453163 -5.23581
HEad  -108.075 24.7734 -35.555
LeftShoulder1  -0.190159 36.0178 8.72569
LeftArm  1.27688 18.0499 -124.578
LeftForeArm  -150.302 -41.5856 -173.193
LeftHand  -98.4736 -41.957 140.624
RightShoulder  0.326953 -1.46516 8.75974
RightArm  -58.629 25.7378 49.9663
RightForeArm  90.2769 79.4345 98.4041
RightHand  175.349 57.3023 176.598
LeftUpLeg  -6.45793 4.47051 1.0247
LeftLeg  -0.36599 -13.4871 -1.14988
LeftFoot  9.72793 -0.349251 1.55957
LeftToes  -3.01956e-010 3.07132e-011 1.04116e-011
434
root  74.0815 39.5105 3.33436 144.283 85.3524 143.412
RightUpLeg  -5.31806 -6.30402 -2.91334
RightLeg  11.8909 15.8675 0.260284
RightFoot  -2.79428 0.114589 -1.78361
RightToes  2.21189e-009 0 -3.6325e-017
Spine  16.8787 -1.32833 1.41967
Spine1  0.22678 0.111769 -7.41074
HEad  -110.991 21.0045 -37.7814
LeftShoulder1  -1.2558 34.0993 5.18592
LeftArm  -1.99704 7.7987 -117.435
LeftForeArm  -160.711 -45.6119 -171.455
LeftHand  -98.9622 -41.2316 141.548
RightShoulder  0.290008 -1.63582 8.15613
RightArm  -61.1849 25.3212 47.738
RightForeArm  84.8287 79.48 93.0393
RightHand  -152.181 49.9343 -166.563
LeftUpLeg  -6.08986 4.69365 0.991301
LeftLeg  -0.0825779 -13.8973 -1.51532
LeftFoot  9.68021 -0.384796 1.75912
LeftToes  -3.01956e-010 3.07132e-011 1.04116e-011
435
root  74.1737 39.5333 3.31825 142.362 84.8148 141.544
RightUpLeg  -5.35051 -6.76816 -3.5076
RightLeg  12.5154 16.0568 0.505486
RightFoot  -2.96181 0.0846241 -1.42899
RightToes  2.21189e-009 0 -3.6325e-017
Spine  17.9893 -1.1682 0.800374
Spine1  -1.09 0.0349844 -6.97916
HEad  -112.636 20.9299 -38.0066
LeftShoulder1  -2.01645 34.8534 2.61781
LeftArm  1.3329 6.06404 -117.454
LeftForeArm  -160.01 -48.5511 -170.511
LeftHand  -99.0718 -41.0869 141.738
RightShoulder  0.284001 -1.81904 9.66446
RightArm  -60.329 25.5397 44.6619
RightForeArm  59.0836 78.8911 83.8139
RightHand  -128.382 33.6907 -162.158
LeftUpLeg  -5.8403 4.57932 0.600687
LeftLeg  -0.235973 -14.1533 -1.72245
LeftFoot  10.0557 -0.396708 1.72723
LeftToes  -3.01956e-010 3.07132e-011 1.04116e-011
436
root  74.198 39.57 3.24728 142.745 84.6945 142.169
RightUpLeg  -5.02097 -6.90359 -3.69601
RightLeg  12.5138 16.1596 0.52746
RightFoot  -2.69206 0.0867024 -1.38594
RightToes  2.21189e-009 0 -3.6325e-017
Spine  19.3026 -1.23321 0.593278
Spine1  -2.22552 -0.138332 -6.96928
HEad  -114.66 20.7533 -38.113
LeftShoulder1  -2.83254 35.3432 -0.0594196
LeftArm  3.89642 3.59785 -117.21
LeftForeArm  -160.078 -51.6716 -169.354
LeftHand  -99.3357 -40.8651 142.09
RightShoulder  0.2907 -1.88049 10.8601
RightArm  -59.6783 25.3525 41.9475
RightForeArm  28.6725 77.9869 80.8998
RightHand  -169.258 9.28273 176.671
LeftUpLeg  -5.49888 4.37982 0.32824
LeftLeg  -0.414128 -14.3349 -1.53191
LeftFoot  11.4659 -0.789627 3.55131
LeftToes  -3.01956e-010 3.07132e-011 1.04116e-011
437
root  74.2245 39.586 3.20312 141.82 84.5579 141.449
RightUpLeg  -4.84457 -6.84025 -3.84862
RightLeg  12.6746 16.1561 0.308056
RightFoot  -2.78601 0.0457259 -0.864886
RightToes  2.21189e-009 0 -3.6325e-017
Spine  20.4201 -1.32406 0.593365
Spine1  -3.19824 -0.190657 -7.62623
HEad  -116.181 20.5992 -38.5247
LeftShoulder1  -3.71621 35.6466 -2.9444
LeftArm  6.65607 0.478927 -116.884
LeftForeArm  -160.741 -55.4107 -167.685
LeftHand  -99.7047 -40.6239 142.522
RightShoulder  0.299895 -1.90134 11.8102
RightArm  -59.338 25.3229 39.2833
RightForeArm  87.5723 79.6887 58.5095
RightHand  39.4542 16.9164 134.582
LeftUpLeg  -5.23006 4.2907 0.206542
LeftLeg  -0.394092 -13.7842 -1.55315
LeftFoot  10.2017 -0.263017 1.06811
LeftToes  -3.01956e-010 3.07132e-011 1.04116e-011
438
root  74.2712 39.6022 3.18848 140.278 84.2823 140.036
RightUpLeg  -4.77857 -7.18036 -4.25677
RightLeg  13.0691 16.5123 0.551839
RightFoot  -2.7242 0.0628305 -1.06886
RightToes  2.21189e-009 0 -3.6325e-017
Spine  21.0366 -1.05667 -0.329386
Spine1  -3.46383 -0.310076 -6.3023
HEad  -118.336 20.4367 -38.2948
LeftShoulder1  -4.37613 35.7681 -5.1026
LeftArm  7.81727 -3.30126 -117.415
LeftForeArm  -162.962 -59.2582 -165.619
LeftHand  -99.6497 -40.6276 142.482
RightShoulder  0.310974 -1.96265 13.403
RightArm  -58.3194 25.6544 36.7237
RightForeArm  71.2293 78.4844 53.2255
RightHand  78.5728 35.9086 130.81
LeftUpLeg  -4.83363 4.12761 -0.0912552
LeftLeg  -0.812797 -13.79 -1.50385
LeftFoot  10.6599 -0.328408 1.35216
LeftToes  -3.01956e-010 3.07132e-011 1.04116e-011
439
root  74.2787 39.613 3.09304 133.745 84.49 133.594
RightUpLeg  -5.03544 -7.66627 -5.04818
RightLeg  13.7916 17.6612 1.37334
RightFoot  -2.7784 0.0489243 -0.846824
RightToes  2.21189e-009 0 -3.6325e-017
Spine  21.3273 -0.359187 -2.17099
Spine1  -1.62028 -0.331319 -2.99122
HEad  -123.489 19.2178 -36.7337
LeftShoulder1  -4.77474 35.8179 -6.4021
LeftArm  7.13974 -8.11248 -118.87
LeftForeArm  -166.209 -61.5628 -163.865
LeftHand  -98.6404 -41.0869 141.464
RightShoulder  0.364807 -1.82306 15.157
RightArm  -57.4245 26.4837 35.3244
RightForeArm  76.5504 78.6905 52.4364
RightHand  82.9643 37.1073 133.371
LeftUpLeg  -4.51897 3.89368 -0.574912
LeftLeg  -1.08297 -13.0294 -1.44237
LeftFoot  11.3098 -0.507689 2.18705
LeftToes  -3.01956e-010 3.07132e-011 1.04116e-011
440
root  74.3309 39.6349 3.04694 134.85 84.4662 134.656
RightUpLeg  -4.84906 -7.6764 -5.00257
RightLeg  13.4372 17.6029 1.14495
RightFoot  -2.6134 0.036383 -0.663471
RightToes  2.21189e-009 0 -3.6325e-017
Spine  21.4076 -0.553985 -1.95801
Spine1  -1.85977 -0.421215 -3.53366
HEad  -125.143 19.1872 -36.5985
LeftShoulder1  -5.53749 35.9532 -8.84928
LeftArm  9.54269 -12.5321 -119.659
LeftForeArm  -169.721 -66.4339 -159.756
LeftHand  -98.845 -40.9366 141.72
RightShoulder  0.34788 -1.978 16.3926
RightArm  -56.9339 26.3925 32.6221
RightForeArm  68.8713 77.3905 45.1875
RightHand  92.8467 43.0422 134.629
LeftUpLeg  -4.47138 3.84445 -0.638341
LeftLeg  -1.16825 -13.0961 -1.40764
LeftFoot  11.8453 -0.677184 2.94829
LeftToes  -3.01956e-010 3.07132e-011 1.04116e-011
441
root  74.361 39.6723 2.94786 135.819 84.7415 135.778
RightUpLeg  -4.44348 -7.78887 -4.99981
RightLeg  13.1838 18.0945 1.28326
RightFoot  -2.3854 0.0185609 -0.409045
RightToes  2.21189e-009 0 -3.6325e-017
Spine  21.499 -0.699085 -1.60477
Spine1  -1.87658 -0.479653 -3.6567
HEad  -127.202 19.2842 -36.0901
LeftShoulder1  -6.1596 36.0767 -10.8091
LeftArm  11.5273 -17.5197 -121.353
LeftForeArm  -176.362 -71.6397 -152.776
LeftHand  -98.9272 -40.872 141.826
RightShoulder  0.326066 -2.14919 17.8534
RightArm  -56.0846 26.4123 30.0435
RightForeArm  64.8927 76.156 39.7534
RightHand  98.2115 45.5006 136.241
LeftUpLeg  -4.3642 3.93315 -0.510425
LeftLeg  -0.953181 -13.0924 -1.40499
LeftFoot  11.8506 -0.685356 2.98512
LeftToes  -3.01956e-010 3.07132e-011 1.04116e-011
442
root  74.2639 39.678 2.88355 134.101 85.0739 134.124
RightUpLeg  -4.72271 -7.74931 -4.95866
RightLeg  13.413 18.3719 1.45215
RightFoot  -2.08159 0.00178362 -0.175305
RightToes  2.21189e-009 0 -3.6325e-017
Spine  22.1161 -0.75203 -1.33648
Spine1  -2.6061 -0.484341 -3.97035
HEad  -128.949 19.4732 -35.754
LeftShoulder1  -6.75174 36.1579 -12.6728
LeftArm  14.1885 -22.9656 -123.842
LeftForeArm  169.801 -77.0589 -138.442
LeftHand  -99.1558 -40.7545 142.069
RightShoulder  0.29464 -2.33627 19.2192
RightArm  -55.2709 26.5288 27.4851
RightForeArm  61.3079 74.6721 34.7901
RightHand  102.701 47.4801 137.69
LeftUpLeg  -4.6814 3.97724 -0.445814
LeftLeg  -0.415566 -12.7445 -1.52237
LeftFoot  11.747 -0.659739 2.87678
LeftToes  -3.01956e-010 3.07132e-011 1.04116e-011
